<?xml version="1.0" encoding="utf-8"?>
<!-- Generator: Adobe Illustrator 26.0.1, SVG Export Plug-In . SVG Version: 6.00 Build 0)  -->
<svg version="1.1" id="Layer_1" xmlns="http://www.w3.org/2000/svg" xmlns:xlink="http://www.w3.org/1999/xlink" x="0px" y="0px"
	 viewBox="0 0 800 800" style="enable-background:new 0 0 800 800;" xml:space="preserve">
<style type="text/css">
	.st0{fill:none;stroke:#FFFFFF;stroke-width:33.3333;stroke-linecap:round;stroke-miterlimit:133.3333;}
	.st1{fill:none;stroke:#FFFFFF;stroke-width:33.3333;stroke-miterlimit:133.3333;}
	.st2{fill:#FFFFFF;}
</style>
<circle class="st0" cx="400" cy="195.5" r="127.8"/>
<path class="st1" d="M490.4,118.8c10.1-17.5,25.2-31.6,43.3-40.6c18.1-8.9,38.5-12.3,58.6-9.7c20,2.6,38.9,11.2,54.1,24.5
	c15.2,13.3,26.1,30.9,31.3,50.4c5.2,19.5,4.6,40.2-1.9,59.3c-6.5,19.1-18.5,35.9-34.6,48.2c-16,12.3-35.4,19.6-55.6,20.9
	c-20.2,1.3-40.3-3.4-57.8-13.5"/>
<path class="st1" d="M309.6,118.8c-10.1-17.5-25.2-31.6-43.3-40.6c-18.1-8.9-38.5-12.3-58.6-9.7c-20,2.6-38.9,11.2-54.1,24.5
	c-15.2,13.3-26.1,30.9-31.3,50.4c-5.2,19.5-4.6,40.2,1.9,59.3c6.5,19.1,18.5,35.9,34.6,48.2c16,12.3,35.4,19.6,55.6,20.9
	c20.2,1.3,40.3-3.4,57.8-13.5"/>
<path class="st0" d="M400,425.6c208.6,0,262.4,168.8,276.3,256c4.4,27.9-18.1,50.8-46.3,50.8H170c-28.2,0-50.7-22.9-46.3-50.8
	C137.6,594.4,191.4,425.6,400,425.6z"/>
<path class="st2" d="M773,574.6l-24.8,6.2L773,574.6z M455.6,430l-18.9-17.2L405,447.5l46.4,7.7L455.6,430z M664.9,630l-24.6,7.1
	l5.3,18.5h19.2V630z M578.9,400c52.5,0,89.4,25.7,116.5,61.7c27.6,36.7,43.8,83,52.8,119.1l49.6-12.4c-9.8-39-28-92.8-61.5-137.4
	c-34-45.3-84.7-82.1-157.3-82.1V400z M474.4,447.2c25.6-28,59-47.2,104.5-47.2v-51.1c-62.2,0-108.7,27.1-142.2,63.8L474.4,447.2z
	 M451.4,455.2c117.6,19.5,167.4,107.4,188.9,182l49.1-14.2c-24.1-83.2-84-194-229.7-218.2L451.4,455.2z M726.9,604.5h-62v51.1h62
	V604.5z M748.2,580.8c2.8,11-5.3,23.6-21.3,23.6v51.1c44.5,0,82.8-39.5,70.9-87.2L748.2,580.8z"/>
<path class="st2" d="M344.4,430l4.2,25.2l46.4-7.7l-31.7-34.7L344.4,430z M27,574.6l24.8,6.2L27,574.6z M135.1,630v25.6h19.2
	l5.3-18.5L135.1,630z M221.1,400c45.5,0,78.9,19.2,104.5,47.2l37.8-34.5c-33.5-36.7-80-63.8-142.2-63.8V400z M51.8,580.8
	c9.1-36.1,25.2-82.4,52.8-119.1c27-36,63.9-61.7,116.5-61.7v-51.1c-72.6,0-123.3,36.8-157.3,82.1C30.3,475.6,12,529.4,2.2,568.4
	L51.8,580.8z M73.1,604.5c-16,0-24-12.6-21.3-23.6L2.2,568.4c-11.9,47.7,26.4,87.2,70.9,87.2V604.5z M135.1,604.5h-62v51.1h62V604.5
	z M159.7,637.1c21.6-74.6,71.3-162.4,188.9-182l-8.4-50.4c-145.7,24.2-205.6,135-229.7,218.2L159.7,637.1z"/>
</svg>
